<svg xmlns="http://www.w3.org/2000/svg" width="572" height="98"><path fill="#FFF" d="M84.264 58.561c-1.716 1.08-3.736 1.214-5.27.351-1.951-1.097-3.024-3.666-3.024-7.24V40.981c0-5.163-2.048-8.837-5.474-9.829-5.806-1.685-10.172 5.392-11.813 8.05l-10.24 16.54V35.527c-.114-4.651-1.63-7.433-4.51-8.272-1.904-.555-4.754-.333-7.523 3.888l-22.94 36.7A40.203 40.203 0 0 1 8.808 49c0-22.107 17.782-40.092 39.637-40.092S88.078 26.893 88.078 49c0 .038.01.072.012.108 0 .038-.007.071-.005.11.207 4.28-1.185 7.687-3.821 9.345v-.002zm12.621-9.559v-.112l-.002-.11C96.76 21.856 75.08 0 48.44 0 21.733 0 0 21.98 0 49c0 27.017 21.733 49 48.444 49 12.256 0 23.954-4.642 32.934-13.067a4.486 4.486 0 0 0 .235-6.294 4.368 4.368 0 0 0-6.223-.239 39.256 39.256 0 0 1-26.946 10.692c-11.703 0-22.232-5.161-29.494-13.345l20.687-33.095v15.256c0 7.329 2.852 9.698 5.244 10.39 2.394.694 6.053.22 9.894-5.994l11.378-18.378a33.45 33.45 0 0 1 1.008-1.547v9.293c0 6.85 2.754 12.33 7.555 15.028 4.327 2.433 9.768 2.213 14.202-.574 5.374-3.382 8.27-9.613 7.967-17.124zm67.444-16.74c1.164.704 2.171 2.272 2.171 3.685 0 2.273-1.938 4.154-4.11 4.154-.541 0-1.084-.155-1.549-.313-2.56-1.881-5.815-3.136-9.227-3.136-8.06 0-13.643 6.585-13.643 14.738 0 8.156 5.583 14.662 13.643 14.662 4.03 0 7.598-1.647 10.311-4.154a4.197 4.197 0 0 1 2.404-.784c2.171 0 3.877 1.723 3.877 3.92 0 1.41-.854 2.665-1.938 3.37-3.877 3.294-9.148 5.488-14.574 5.488-12.404 0-22.484-10.192-22.484-22.736s10.078-22.736 22.484-22.736c4.651 0 9.068 1.41 12.635 3.841zm22.68 9.486c8.45 0 15.582 7.135 15.582 15.914 0 8.782-7.132 16.23-15.581 16.23-8.838 0-16.203-7.448-16.203-16.23 0-8.78 7.365-15.914 16.203-15.914zm-.078 24.304c3.723 0 6.9-3.528 6.9-8.31 0-4.781-3.177-7.762-6.9-7.762-4.03 0-7.365 2.902-7.365 7.761 0 4.783 3.334 8.311 7.365 8.311zm20.974 2.978V46.61c0-2.431 1.939-4.47 4.343-4.47 2.403 0 4.419 2.039 4.419 4.47v22.42c0 2.431-2.016 4.47-4.42 4.47-2.403 0-4.342-2.039-4.342-4.47zm-.695-35.356c0-2.902 2.245-5.254 5.038-5.254 2.866 0 5.194 2.352 5.194 5.254 0 2.82-2.328 5.096-5.194 5.096-2.793 0-5.038-2.276-5.038-5.096zm26.245 23.204V69.03c0 2.431-2.015 4.47-4.421 4.47-2.402 0-4.343-2.039-4.343-4.47V45.59c0-1.882 1.553-3.45 3.414-3.45 1.86 0 3.335 1.568 3.335 3.45 3.565-3.292 6.664-3.842 9.61-3.842 8.762 0 12.639 6.585 12.639 14.033v13.25c0 2.43-2.016 4.469-4.42 4.469-2.403 0-4.342-2.039-4.342-4.47V56.878c0-3.84-.465-7.056-5.969-7.056-3.876 0-5.505 3.215-5.505 7.056h.002zm48.727 4.628c-1.008 0-1.703-.471-2.248-1.1L269.7 49.354V69.03c0 2.431-2.015 4.47-4.42 4.47-2.403 0-4.342-2.039-4.342-4.47V30.07a1.713 1.713 0 0 1 1.632-1.1c.772 0 1.391.628 1.86 1.1l16.279 18.266c.465.55 1.084.862 1.396.862.31 0 .929-.313 1.394-.86l16.282-18.269c.466-.47 1.085-1.1 1.86-1.1.774 0 1.396.472 1.628 1.1V69.03c0 2.431-1.938 4.47-4.342 4.47s-4.419-2.039-4.419-4.47V49.354l-10.232 11.052c-.544.629-1.242 1.1-2.094 1.1zm42.139 4.546c3.954 0 7.286-3.528 7.286-8.31 0-4.781-3.41-7.92-7.286-7.92-3.877 0-6.979 3.215-6.979 7.92 0 4.624 3.102 8.31 6.979 8.31zm9.303 3.999-.158-1.02c-1.703 3.37-7.132 4.861-10.62 4.861-8.22 0-14.265-7.448-14.265-16.23 0-8.78 6.201-15.914 14.73-15.914 1.473 0 6.357.392 10.155 4.862l.156-1.02c0-1.882 1.473-3.45 3.335-3.45 1.859 0 3.409 1.568 3.409 3.45v24.46c0 1.882-1.55 3.45-3.412 3.45-1.859 0-3.334-1.568-3.334-3.45h.004zm31.051-20.229h-.928c-5.506.316-6.59 3.452-6.59 7.056V69.03c0 2.431-2.016 4.47-4.42 4.47-2.403 0-4.342-2.039-4.342-4.47V45.59c0-1.882 1.55-3.45 3.412-3.45 1.861 0 3.334 1.568 3.334 3.45 3.256-3.058 5.892-3.684 8.606-3.842h.851c2.095 0 4.03 1.802 4.03 4.078 0 2.115-1.858 3.996-3.953 3.996zm33.767 17.172a3.96 3.96 0 0 1 .621 2.115c0 2.273-2.094 4.391-4.342 4.391-1.55 0-2.87-1.176-3.877-2.43l-10.076-11.682v9.642c0 2.431-2.018 4.47-4.421 4.47-2.404 0-4.343-2.039-4.343-4.47V33.44c0-2.434 1.939-4.47 4.343-4.47 2.403 0 4.419 2.036 4.419 4.47v22.186l10.078-11.134c1.008-1.176 2.248-2.352 3.8-2.352 2.171 0 4.186 2.039 4.186 4.312 0 .705-.156 1.41-.544 2.039l-7.984 8.7 8.14 9.8v.003zM409.338 55.1h12.636c0-3.742-2.967-5.6-6.318-5.6-3.351 0-6.318 1.936-6.318 5.6zm17.753 5.385h-17.753c0 5.254 5.038 6.038 7.286 6.038 1.631 0 3.956-.313 5.738-1.1.543-.39 1.473-.705 2.248-.705 1.939 0 3.565 1.65 3.565 3.61 0 1.33-.851 2.507-1.936 3.133-2.713 1.96-6.204 2.431-9.536 2.431-8.838 0-16.203-4.78-16.203-15.838 0-8.7 4.496-16.306 14.963-16.306 8.45 0 14.883 5.488 15.04 15.288 0 1.881-1.55 3.45-3.412 3.45zm24.386 13.407h-2.404c-6.669 0-10.543-2.902-10.543-13.328V49.822h-2.248c-2.095 0-3.954-1.88-3.954-3.996 0-2.276 1.86-4.078 3.954-4.078h2.248v-8.31c0-2.432 1.938-4.47 4.342-4.47 2.401 0 4.419 2.038 4.419 4.47v8.31h3.642c2.094 0 3.956 1.802 3.956 4.078 0 2.115-1.862 3.996-3.956 3.996h-3.642v9.016c0 5.96.31 7.214 2.946 7.214h1.24c2.092 0 3.875 1.726 3.875 3.92 0 2.118-1.783 3.92-3.875 3.92zm42.449-41.63c1.16.704 2.17 2.272 2.17 3.685 0 2.273-1.938 4.154-4.109 4.154-.542 0-1.086-.155-1.55-.313-2.56-1.881-5.815-3.136-9.226-3.136-8.06 0-13.646 6.585-13.646 14.738 0 8.156 5.583 14.662 13.646 14.662 4.03 0 7.598-1.647 10.31-4.154a4.197 4.197 0 0 1 2.405-.784c2.17 0 3.874 1.723 3.874 3.92 0 1.41-.851 2.665-1.936 3.37-3.877 3.294-9.15 5.488-14.576 5.488-12.403 0-22.482-10.192-22.482-22.736s10.076-22.736 22.482-22.736c4.654 0 9.07 1.41 12.638 3.841zm22.215 33.79c3.953 0 7.286-3.528 7.286-8.31 0-4.781-3.412-7.92-7.289-7.92-3.874 0-6.976 3.215-6.976 7.92 0 4.624 3.102 8.31 6.976 8.31h.003zm9.3 3.999-.153-1.02c-1.705 3.37-7.132 4.861-10.623 4.861-8.216 0-14.264-7.448-14.264-16.23 0-8.78 6.204-15.914 14.73-15.914 1.473 0 6.357.392 10.157 4.862l.154-1.02c0-1.882 1.473-3.45 3.335-3.45 1.859 0 3.411 1.568 3.411 3.45v24.46c0 1.882-1.552 3.45-3.411 3.45-1.862 0-3.335-1.568-3.335-3.45zm30.821-3.999c3.877 0 6.977-3.686 6.977-8.31 0-4.705-3.1-7.92-6.977-7.92-3.877 0-7.288 3.136-7.288 7.92 0 4.782 3.335 8.31 7.288 8.31zm-7.288 5.254v11.131c0 2.431-2.015 4.47-4.419 4.47-2.401 0-4.342-2.039-4.342-4.47V45.59c0-1.881 1.552-3.449 3.414-3.449 1.859 0 3.334 1.568 3.334 3.762 3.253-3.37 7.286-4.154 10.309-4.154 8.528 0 14.73 7.135 14.73 15.914 0 8.782-6.046 16.23-14.265 16.23-2.557 0-6.357-.784-8.761-2.586z"/></svg>