<svg width="371" height="65" viewBox="0 0 371 65" fill="none" xmlns="http://www.w3.org/2000/svg">
<path d="M296.213 21.1425C296.405 21.1425 296.558 20.9805 296.558 20.7779V13.404C296.558 13.2014 296.405 13.0393 296.213 13.0393H261.252C261.06 13.0393 260.907 13.2014 260.907 13.404V52.1374C260.907 52.34 261.06 52.5021 261.252 52.5021H296.213C296.405 52.5021 296.558 52.34 296.558 52.1374V44.7635C296.558 44.5609 296.405 44.3988 296.213 44.3988H269.609C269.417 44.3988 269.264 44.2368 269.264 44.0342V37.1464C269.264 36.9439 269.417 36.7818 269.609 36.7818H296.213C296.405 36.7818 296.558 36.6197 296.558 36.4172V29.0432C296.558 28.8406 296.405 28.6786 296.213 28.6786H269.609C269.417 28.6786 269.264 28.5165 269.264 28.3139V21.4262C269.264 21.2236 269.417 21.0615 269.609 21.0615H296.213V21.1425Z" fill="#209950"/>
<path d="M228.591 13.0796L212.835 41.4409C212.72 41.684 212.375 41.684 212.26 41.4409L196.505 13.0796H187.189L209.079 52.5019H216.017L237.906 13.0796H228.591Z" fill="#209950"/>
<path d="M126.85 21.6285V43.9529C126.85 48.6933 130.453 52.5019 134.939 52.5019H156.061C160.546 52.5019 164.15 48.6933 164.15 43.9529V21.6285C164.15 16.8881 160.546 13.0796 156.061 13.0796H134.939C130.492 13.0796 126.85 16.8881 126.85 21.6285ZM156.176 44.3986H134.824C134.632 44.3986 134.478 44.2365 134.478 44.034V21.4664C134.478 21.2639 134.632 21.1018 134.824 21.1018H156.176C156.368 21.1018 156.521 21.2639 156.521 21.4664V44.034C156.521 44.2365 156.368 44.3986 156.176 44.3986Z" fill="#209950"/>
<path d="M64.0193 13.0798V52.5021H71.6479V39.2938H82.535L93.0388 52.5021H101.319V50.1521L92.5787 39.2533H93.2304C97.7156 39.2533 101.319 35.4448 101.319 30.7044V21.5882C101.319 16.8478 97.7156 13.0393 93.2304 13.0393H64.0193V13.0798ZM93.3454 31.1906H71.9929C71.8013 31.1906 71.6479 31.0285 71.6479 30.8259V21.5072C71.6479 21.3046 71.8013 21.1425 71.9929 21.1425H93.3454C93.5371 21.1425 93.6904 21.3046 93.6904 21.5072V30.8259C93.6904 31.0285 93.5371 31.1906 93.3454 31.1906Z" fill="#209950"/>
<path d="M0 21.6285V43.9529C0 48.6933 3.60347 52.5019 8.08865 52.5019H29.2111C33.6963 52.5019 37.2998 48.6933 37.2998 43.9529V29.6912H21.7359V37.7945H29.3262C29.5178 37.7945 29.6712 37.9565 29.6712 38.1591V44.0745C29.6712 44.2771 29.5178 44.4391 29.3262 44.4391H7.97365C7.78197 44.4391 7.62863 44.2771 7.62863 44.0745V21.507C7.62863 21.3044 7.78197 21.1423 7.97365 21.1423H29.3262C29.5178 21.1423 29.6712 21.3044 29.6712 21.507V24.8293H37.2998V21.6285C37.2998 16.8881 33.6963 13.0796 29.2111 13.0796H8.08865C3.60347 13.0796 0 16.8881 0 21.6285Z" fill="#209950"/>
<mask id="mask0_3885_43012" style="mask-type:luminance" maskUnits="userSpaceOnUse" x="342" y="13" width="20" height="19">
<path d="M358.037 13.3164H352.313C350.039 13.3164 347.891 14.3904 346.453 16.2345L342.634 21.1487L350.515 31.6052L360.495 18.6764C362.157 16.5182 360.69 13.3164 358.037 13.3164Z" fill="white"/>
</mask>
<g mask="url(#mask0_3885_43012)">
<path d="M370.796 20.8752L354.091 41.6262L334.004 24.0466L350.7 3.29565L370.796 20.8752Z" fill="url(#paint0_linear_3885_43012)"/>
</g>
<mask id="mask1_3885_43012" style="mask-type:luminance" maskUnits="userSpaceOnUse" x="341" y="35" width="21" height="20">
<path d="M341.944 45.7499L346.093 51.2517C347.541 53.1667 349.757 54.2813 352.089 54.2711L358.251 54.2407C360.68 54.2306 362.041 51.3226 360.554 49.3164L350.292 35.4453L341.944 45.7499Z" fill="white"/>
</mask>
<g mask="url(#mask1_3885_43012)">
<path d="M350.593 25.0596L371 43.551L353.391 64.6667L332.993 46.1753L350.593 25.0596Z" fill="url(#paint1_linear_3885_43012)"/>
</g>
<mask id="mask2_3885_43012" style="mask-type:luminance" maskUnits="userSpaceOnUse" x="320" y="33" width="29" height="22">
<path d="M332.973 33.4089L320.7 49.0836C319.135 51.0797 320.496 54.0788 322.974 54.0788L329.096 54.0687C331.36 54.0687 333.508 53.0048 334.946 51.181L348.979 33.4089H332.973Z" fill="white"/>
</mask>
<g mask="url(#mask2_3885_43012)">
<path d="M312.76 51.6573L322.624 23.4084L355.344 35.8307L345.48 64.0795L312.76 51.6573Z" fill="url(#paint2_linear_3885_43012)"/>
</g>
<mask id="mask3_3885_43012" style="mask-type:luminance" maskUnits="userSpaceOnUse" x="321" y="13" width="28" height="21">
<path d="M330.379 13.5496H324.986C322.381 13.5496 320.894 16.65 322.459 18.8184L332.964 33.4089H348.96L336.326 16.569C334.898 14.6641 332.702 13.5496 330.379 13.5496Z" fill="white"/>
</mask>
<g mask="url(#mask3_3885_43012)">
<path d="M341.953 0.874023L357.22 28.444L327.92 46.0844L312.654 18.5144L341.953 0.874023Z" fill="url(#paint3_linear_3885_43012)"/>
</g>
<defs>
<linearGradient id="paint0_linear_3885_43012" x1="359.537" y1="13.6131" x2="346.714" y2="28.2707" gradientUnits="userSpaceOnUse">
<stop stop-color="#09BE5B"/>
<stop offset="0.0558535" stop-color="#09BE5B"/>
<stop offset="0.7036" stop-color="#008F31"/>
<stop offset="1" stop-color="#008F31"/>
</linearGradient>
<linearGradient id="paint1_linear_3885_43012" x1="346.532" y1="39.926" x2="361.263" y2="52.208" gradientUnits="userSpaceOnUse">
<stop stop-color="#39B958"/>
<stop offset="0.1808" stop-color="#39B958"/>
<stop offset="0.2361" stop-color="#55C04B"/>
<stop offset="0.3595" stop-color="#8ECD30"/>
<stop offset="0.4737" stop-color="#BBD81C"/>
<stop offset="0.575" stop-color="#DBE00C"/>
<stop offset="0.6596" stop-color="#EFE403"/>
<stop offset="0.7172" stop-color="#F6E600"/>
<stop offset="1" stop-color="#F6E600"/>
</linearGradient>
<linearGradient id="paint2_linear_3885_43012" x1="329.518" y1="56.7538" x2="339.714" y2="29.8859" gradientUnits="userSpaceOnUse">
<stop stop-color="#008F31"/>
<stop offset="0.38" stop-color="#008F31"/>
<stop offset="0.7952" stop-color="#09BE5B"/>
<stop offset="1" stop-color="#09BE5B"/>
</linearGradient>
<linearGradient id="paint3_linear_3885_43012" x1="328.095" y1="11.1598" x2="343.477" y2="36.7132" gradientUnits="userSpaceOnUse">
<stop stop-color="#09BE5B"/>
<stop offset="0.1829" stop-color="#09BE5B"/>
<stop offset="0.6317" stop-color="#008F31"/>
<stop offset="1" stop-color="#008F31"/>
</linearGradient>
</defs>
</svg>
